<svg width="36" height="36" viewBox="0 0 36 36" fill="none" xmlns="http://www.w3.org/2000/svg">
<mask id="mask0_148_4329" style="mask-type:alpha" maskUnits="userSpaceOnUse" x="0" y="0" width="36" height="36">
<circle cx="18.1533" cy="18.2526" r="17.5292" fill="#FFC145"/>
</mask>
<g mask="url(#mask0_148_4329)">
<circle cx="18.1533" cy="18.2526" r="17.5292" fill="#FFC145"/>
</g>
<mask id="mask1_148_4329" style="mask-type:alpha" maskUnits="userSpaceOnUse" x="0" y="0" width="36" height="36">
<circle cx="18.1533" cy="18.2526" r="17.5292" fill="#FFC145"/>
</mask>
<g mask="url(#mask1_148_4329)">
<path d="M28.9859 37.8702V34.2894C28.9859 32.39 28.4153 30.5684 27.3995 29.2253C26.3837 27.8822 25.0061 27.1277 23.5695 27.1277H12.7367C11.3002 27.1277 9.92251 27.8822 8.90674 29.2253C7.89097 30.5684 7.32031 32.39 7.32031 34.2894V37.8702" fill="#197BBD"/>
<path d="M18.1518 21.7105C21.1432 21.7105 23.5682 19.2855 23.5682 16.2941C23.5682 13.3027 21.1432 10.8777 18.1518 10.8777C15.1604 10.8777 12.7354 13.3027 12.7354 16.2941C12.7354 19.2855 15.1604 21.7105 18.1518 21.7105Z" fill="white"/>
</g>
</svg>
