<svg width="36" height="36" viewBox="0 0 36 36" fill="none" xmlns="http://www.w3.org/2000/svg">
<mask id="mask0_148_4650" style="mask-type:alpha" maskUnits="userSpaceOnUse" x="0" y="0" width="36" height="36">
<circle cx="18.1533" cy="18.2529" r="17.5292" fill="#FFC145"/>
</mask>
<g mask="url(#mask0_148_4650)">
<circle cx="18.1533" cy="18.2529" r="17.5292" fill="#FFC145"/>
</g>
<mask id="mask1_148_4650" style="mask-type:alpha" maskUnits="userSpaceOnUse" x="0" y="0" width="36" height="36">
<circle cx="18.1533" cy="18.2529" r="17.5292" fill="#FFC145"/>
</mask>
<g mask="url(#mask1_148_4650)">
<path d="M28.9859 37.8704V34.2896C28.9859 32.3902 28.4153 30.5686 27.3995 29.2255C26.3837 27.8825 25.0061 27.1279 23.5695 27.1279H12.7367C11.3002 27.1279 9.92251 27.8825 8.90674 29.2255C7.89097 30.5686 7.32031 32.3902 7.32031 34.2896V37.8704" fill="#197BBD"/>
<path d="M18.1518 21.7107C21.1432 21.7107 23.5682 19.2857 23.5682 16.2943C23.5682 13.3029 21.1432 10.8779 18.1518 10.8779C15.1604 10.8779 12.7354 13.3029 12.7354 16.2943C12.7354 19.2857 15.1604 21.7107 18.1518 21.7107Z" fill="white"/>
</g>
</svg>
