<svg width="25" height="25" viewBox="0 0 25 25" fill="none" xmlns="http://www.w3.org/2000/svg">
<g clip-path="url(#clip0_148_4642)">
<path d="M18.7959 8.25293C18.7959 6.66163 18.1638 5.13551 17.0385 4.01029C15.9133 2.88507 14.3872 2.25293 12.7959 2.25293C11.2046 2.25293 9.67848 2.88507 8.55326 4.01029C7.42804 5.13551 6.7959 6.66163 6.7959 8.25293C6.7959 15.2529 3.7959 17.2529 3.7959 17.2529H21.7959C21.7959 17.2529 18.7959 15.2529 18.7959 8.25293Z" fill="#E3E3E3"/>
<path d="M14.5259 21.2529C14.3501 21.556 14.0978 21.8076 13.7941 21.9825C13.4905 22.1573 13.1463 22.2494 12.7959 22.2494C12.4455 22.2494 12.1013 22.1573 11.7977 21.9825C11.4941 21.8076 11.2417 21.556 11.0659 21.2529" stroke="#E3E3E3" stroke-width="2" stroke-linecap="round" stroke-linejoin="round"/>
<circle cx="18.4973" cy="4.95121" r="3.97196" fill="#BB4430"/>
</g>
<defs>
<clipPath id="clip0_148_4642">
<rect width="24" height="24" fill="white" transform="translate(0.795898 0.25293)"/>
</clipPath>
</defs>
</svg>
