<svg width="25" height="25" viewBox="0 0 25 25" fill="none" xmlns="http://www.w3.org/2000/svg">
<g clip-path="url(#clip0_148_4321)">
<path d="M18.7959 8.25269C18.7959 6.66139 18.1638 5.13526 17.0385 4.01004C15.9133 2.88483 14.3872 2.25269 12.7959 2.25269C11.2046 2.25269 9.67848 2.88483 8.55326 4.01004C7.42804 5.13526 6.7959 6.66139 6.7959 8.25269C6.7959 15.2527 3.7959 17.2527 3.7959 17.2527H21.7959C21.7959 17.2527 18.7959 15.2527 18.7959 8.25269Z" fill="#E3E3E3"/>
<path d="M14.5259 21.2527C14.3501 21.5558 14.0978 21.8073 13.7941 21.9822C13.4905 22.1571 13.1463 22.2491 12.7959 22.2491C12.4455 22.2491 12.1013 22.1571 11.7977 21.9822C11.4941 21.8073 11.2417 21.5558 11.0659 21.2527" stroke="#E3E3E3" stroke-width="2" stroke-linecap="round" stroke-linejoin="round"/>
<circle cx="18.4973" cy="4.95096" r="3.97196" fill="#BB4430"/>
</g>
<defs>
<clipPath id="clip0_148_4321">
<rect width="24" height="24" fill="white" transform="translate(0.795898 0.252686)"/>
</clipPath>
</defs>
</svg>
