<svg width="47" height="100" viewBox="0 0 47 100" fill="none" xmlns="http://www.w3.org/2000/svg">
<path d="M10 23C10 25.7614 7.76142 28 5 28C2.23858 28 0 25.7614 0 23C0 20.2386 2.23858 18 5 18C7.76142 18 10 20.2386 10 23Z" fill="#91E284"/>
<path d="M47 23C47 25.7614 44.7614 28 42 28C39.2386 28 37 25.7614 37 23C37 20.2386 39.2386 18 42 18C44.7614 18 47 20.2386 47 23Z" fill="#91E284"/>
<path d="M47 41C47 43.7614 44.7614 46 42 46C39.2386 46 37 43.7614 37 41C37 38.2386 39.2386 36 42 36C44.7614 36 47 38.2386 47 41Z" fill="#91E284"/>
<path d="M47 59C47 61.7614 44.7614 64 42 64C39.2386 64 37 61.7614 37 59C37 56.2386 39.2386 54 42 54C44.7614 54 47 56.2386 47 59Z" fill="#91E284"/>
<path d="M47 77C47 79.7614 44.7614 82 42 82C39.2386 82 37 79.7614 37 77C37 74.2386 39.2386 72 42 72C44.7614 72 47 74.2386 47 77Z" fill="#91E284"/>
<path d="M10 41C10 43.7614 7.76142 46 5 46C2.23858 46 0 43.7614 0 41C0 38.2386 2.23858 36 5 36C7.76142 36 10 38.2386 10 41Z" fill="#91E284"/>
<path d="M10 59C10 61.7614 7.76142 64 5 64C2.23858 64 0 61.7614 0 59C0 56.2386 2.23858 54 5 54C7.76142 54 10 56.2386 10 59Z" fill="#91E284"/>
<path d="M10 77C10 79.7614 7.76142 82 5 82C2.23858 82 0 79.7614 0 77C0 74.2386 2.23858 72 5 72C7.76142 72 10 74.2386 10 77Z" fill="#91E284"/>
<path d="M10 5C10 7.76142 7.76142 10 5 10C2.23858 10 0 7.76142 0 5C0 2.23858 2.23858 0 5 0C7.76142 0 10 2.23858 10 5Z" fill="#91E284"/>
<path d="M28 23C28 25.7614 25.7614 28 23 28C20.2386 28 18 25.7614 18 23C18 20.2386 20.2386 18 23 18C25.7614 18 28 20.2386 28 23Z" fill="#91E284"/>
<path d="M28 41C28 43.7614 25.7614 46 23 46C20.2386 46 18 43.7614 18 41C18 38.2386 20.2386 36 23 36C25.7614 36 28 38.2386 28 41Z" fill="#91E284"/>
<path d="M28 59C28 61.7614 25.7614 64 23 64C20.2386 64 18 61.7614 18 59C18 56.2386 20.2386 54 23 54C25.7614 54 28 56.2386 28 59Z" fill="#91E284"/>
<path d="M28 77C28 79.7614 25.7614 82 23 82C20.2386 82 18 79.7614 18 77C18 74.2386 20.2386 72 23 72C25.7614 72 28 74.2386 28 77Z" fill="#91E284"/>
<path d="M28 95C28 97.7614 25.7614 100 23 100C20.2386 100 18 97.7614 18 95C18 92.2386 20.2386 90 23 90C25.7614 90 28 92.2386 28 95Z" fill="#91E284"/>
<path d="M47 5C47 7.76142 44.7614 10 42 10C39.2386 10 37 7.76142 37 5C37 2.23858 39.2386 0 42 0C44.7614 0 47 2.23858 47 5Z" fill="#91E284"/>
</svg>
