<svg width="31" height="31" viewBox="0 0 31 31" fill="none" xmlns="http://www.w3.org/2000/svg">
<rect width="30" height="30" transform="translate(0.376953 0.787598)" fill="white"/>
<path d="M15.3774 18.1028C16.6559 18.1028 17.6924 17.0663 17.6924 15.7878C17.6924 14.5093 16.6559 13.4729 15.3774 13.4729C14.0989 13.4729 13.0625 14.5093 13.0625 15.7878C13.0625 17.0663 14.0989 18.1028 15.3774 18.1028Z" stroke="#C7C7C7" stroke-width="2" stroke-linecap="round" stroke-linejoin="round"/>
<path d="M21.0874 18.1026C20.9847 18.3353 20.954 18.5935 20.9994 18.8438C21.0448 19.0941 21.1642 19.3251 21.342 19.507L21.3883 19.5533C21.5318 19.6966 21.6457 19.8668 21.7233 20.0542C21.801 20.2415 21.841 20.4423 21.841 20.6451C21.841 20.848 21.801 21.0488 21.7233 21.2361C21.6457 21.4235 21.5318 21.5937 21.3883 21.737C21.245 21.8805 21.0748 21.9943 20.8875 22.072C20.7001 22.1497 20.4993 22.1896 20.2965 22.1896C20.0937 22.1896 19.8928 22.1497 19.7055 22.072C19.5181 21.9943 19.3479 21.8805 19.2046 21.737L19.1583 21.6907C18.9764 21.5128 18.7455 21.3935 18.4951 21.3481C18.2448 21.3027 17.9866 21.3334 17.7539 21.4361C17.5257 21.5339 17.331 21.6963 17.1939 21.9033C17.0568 22.1104 16.9833 22.353 16.9823 22.6013V22.7324C16.9823 23.1417 16.8197 23.5343 16.5302 23.8237C16.2408 24.1131 15.8483 24.2757 15.439 24.2757C15.0297 24.2757 14.6371 24.1131 14.3477 23.8237C14.0583 23.5343 13.8957 23.1417 13.8957 22.7324V22.663C13.8897 22.4076 13.807 22.1599 13.6584 21.9521C13.5098 21.7443 13.3021 21.586 13.0623 21.4978C12.8296 21.3951 12.5714 21.3644 12.3211 21.4098C12.0708 21.4552 11.8398 21.5746 11.6579 21.7525L11.6116 21.7987C11.4683 21.9422 11.2981 22.0561 11.1107 22.1337C10.9234 22.2114 10.7226 22.2514 10.5197 22.2514C10.3169 22.2514 10.1161 22.2114 9.92876 22.1337C9.74141 22.0561 9.5712 21.9422 9.42787 21.7987C9.28438 21.6554 9.17055 21.4852 9.09288 21.2979C9.01522 21.1105 8.97524 20.9097 8.97524 20.7069C8.97524 20.5041 9.01522 20.3032 9.09288 20.1159C9.17055 19.9285 9.28438 19.7583 9.42787 19.615L9.47417 19.5687C9.65206 19.3868 9.77139 19.1559 9.81678 18.9055C9.86217 18.6552 9.83153 18.397 9.72881 18.1643C9.63099 17.9361 9.46858 17.7414 9.26155 17.6043C9.05453 17.4672 8.81193 17.3937 8.56363 17.3927H8.43245C8.02314 17.3927 7.6306 17.2301 7.34118 16.9406C7.05176 16.6512 6.88916 16.2587 6.88916 15.8494C6.88916 15.4401 7.05176 15.0475 7.34118 14.7581C7.6306 14.4687 8.02314 14.3061 8.43245 14.3061H8.5019C8.75731 14.3001 9.00501 14.2174 9.21281 14.0688C9.42061 13.9202 9.57889 13.7125 9.66708 13.4727C9.7698 13.24 9.80044 12.9818 9.75505 12.7315C9.70966 12.4812 9.59033 12.2502 9.41244 12.0683L9.36614 12.022C9.22265 11.8787 9.10882 11.7085 9.03115 11.5211C8.95349 11.3338 8.91351 11.133 8.91351 10.9301C8.91351 10.7273 8.95349 10.5265 9.03115 10.3392C9.10882 10.1518 9.22265 9.9816 9.36614 9.83827C9.50947 9.69478 9.67967 9.58095 9.86703 9.50328C10.0544 9.42562 10.2552 9.38564 10.458 9.38564C10.6608 9.38564 10.8616 9.42562 11.049 9.50328C11.2364 9.58095 11.4066 9.69478 11.5499 9.83827L11.5962 9.88457C11.778 10.0625 12.009 10.1818 12.2593 10.2272C12.5097 10.2726 12.7678 10.2419 13.0006 10.1392H13.0623C13.2905 10.0414 13.4852 9.87898 13.6223 9.67195C13.7594 9.46493 13.833 9.22233 13.834 8.97403V8.84285C13.834 8.43354 13.9966 8.041 14.286 7.75158C14.5754 7.46216 14.9679 7.29956 15.3772 7.29956C15.7865 7.29956 16.1791 7.46216 16.4685 7.75158C16.7579 8.041 16.9205 8.43354 16.9205 8.84285V8.9123C16.9215 9.1606 16.9951 9.4032 17.1322 9.61022C17.2693 9.81725 17.4639 9.97966 17.6922 10.0775C17.9249 10.1802 18.1831 10.2108 18.4334 10.1654C18.6837 10.1201 18.9147 10.0007 19.0966 9.82284L19.1429 9.77654C19.2862 9.63305 19.4564 9.51922 19.6438 9.44155C19.8311 9.36389 20.0319 9.32391 20.2347 9.32391C20.4376 9.32391 20.6384 9.36389 20.8257 9.44155C21.0131 9.51922 21.1833 9.63305 21.3266 9.77654C21.4701 9.91987 21.5839 10.0901 21.6616 10.2774C21.7393 10.4648 21.7792 10.6656 21.7792 10.8684C21.7792 11.0712 21.7393 11.272 21.6616 11.4594C21.5839 11.6468 21.4701 11.817 21.3266 11.9603L21.2803 12.0066C21.1024 12.1884 20.9831 12.4194 20.9377 12.6697C20.8923 12.9201 20.923 13.1782 21.0257 13.411V13.4727C21.1235 13.7009 21.2859 13.8956 21.4929 14.0327C21.7 14.1698 21.9426 14.2434 22.1909 14.2444H22.322C22.7313 14.2444 23.1239 14.407 23.4133 14.6964C23.7027 14.9858 23.8653 15.3783 23.8653 15.7876C23.8653 16.1969 23.7027 16.5895 23.4133 16.8789C23.1239 17.1683 22.7313 17.3309 22.322 17.3309H22.2526C22.0043 17.3319 21.7617 17.4055 21.5547 17.5426C21.3476 17.6797 21.1852 17.8743 21.0874 18.1026V18.1026Z" stroke="#C7C7C7" stroke-width="2" stroke-linecap="round" stroke-linejoin="round"/>
</svg>
