<svg width="31" height="31" viewBox="0 0 31 31" fill="none" xmlns="http://www.w3.org/2000/svg">
<rect width="30" height="30" transform="translate(0.376953 0.787598)" fill="white"/>
<path d="M15.3772 18.1028C16.6557 18.1028 17.6921 17.0663 17.6921 15.7878C17.6921 14.5093 16.6557 13.4729 15.3772 13.4729C14.0987 13.4729 13.0623 14.5093 13.0623 15.7878C13.0623 17.0663 14.0987 18.1028 15.3772 18.1028Z" stroke="#C7C7C7" stroke-width="2" stroke-linecap="round" stroke-linejoin="round"/>
<path d="M21.0872 18.1026C20.9844 18.3353 20.9538 18.5935 20.9992 18.8438C21.0446 19.0941 21.1639 19.3251 21.3418 19.507L21.3881 19.5533C21.5316 19.6966 21.6454 19.8668 21.7231 20.0542C21.8008 20.2415 21.8407 20.4423 21.8407 20.6451C21.8407 20.848 21.8008 21.0488 21.7231 21.2361C21.6454 21.4235 21.5316 21.5937 21.3881 21.737C21.2448 21.8805 21.0746 21.9943 20.8872 22.072C20.6999 22.1497 20.499 22.1896 20.2962 22.1896C20.0934 22.1896 19.8926 22.1497 19.7052 22.072C19.5179 21.9943 19.3477 21.8805 19.2044 21.737L19.1581 21.6907C18.9762 21.5128 18.7452 21.3935 18.4949 21.3481C18.2446 21.3027 17.9864 21.3334 17.7537 21.4361C17.5254 21.5339 17.3308 21.6963 17.1937 21.9033C17.0566 22.1104 16.983 22.353 16.982 22.6013V22.7324C16.982 23.1417 16.8194 23.5343 16.53 23.8237C16.2406 24.1131 15.848 24.2757 15.4387 24.2757C15.0294 24.2757 14.6369 24.1131 14.3475 23.8237C14.058 23.5343 13.8954 23.1417 13.8954 22.7324V22.663C13.8895 22.4076 13.8068 22.1599 13.6582 21.9521C13.5095 21.7443 13.3018 21.586 13.0621 21.4978C12.8293 21.3951 12.5712 21.3644 12.3208 21.4098C12.0705 21.4552 11.8395 21.5746 11.6577 21.7525L11.6114 21.7987C11.468 21.9422 11.2978 22.0561 11.1105 22.1337C10.9231 22.2114 10.7223 22.2514 10.5195 22.2514C10.3167 22.2514 10.1159 22.2114 9.92851 22.1337C9.74116 22.0561 9.57095 21.9422 9.42762 21.7987C9.28413 21.6554 9.1703 21.4852 9.09264 21.2979C9.01497 21.1105 8.975 20.9097 8.975 20.7069C8.975 20.5041 9.01497 20.3032 9.09264 20.1159C9.1703 19.9285 9.28413 19.7583 9.42762 19.615L9.47392 19.5687C9.65182 19.3868 9.77115 19.1559 9.81654 18.9055C9.86192 18.6552 9.83128 18.397 9.72857 18.1643C9.63075 17.9361 9.46833 17.7414 9.26131 17.6043C9.05428 17.4672 8.81169 17.3937 8.56338 17.3927H8.4322C8.0229 17.3927 7.63036 17.2301 7.34093 16.9406C7.05151 16.6512 6.88892 16.2587 6.88892 15.8494C6.88892 15.4401 7.05151 15.0475 7.34093 14.7581C7.63036 14.4687 8.0229 14.3061 8.4322 14.3061H8.50165C8.75706 14.3001 9.00477 14.2174 9.21257 14.0688C9.42037 13.9202 9.57865 13.7125 9.66683 13.4727C9.76955 13.24 9.80019 12.9818 9.7548 12.7315C9.70942 12.4812 9.59008 12.2502 9.41219 12.0683L9.36589 12.022C9.2224 11.8787 9.10857 11.7085 9.03091 11.5211C8.95324 11.3338 8.91327 11.133 8.91327 10.9301C8.91327 10.7273 8.95324 10.5265 9.03091 10.3392C9.10857 10.1518 9.2224 9.9816 9.36589 9.83827C9.50922 9.69478 9.67943 9.58095 9.86678 9.50328C10.0541 9.42562 10.255 9.38564 10.4578 9.38564C10.6606 9.38564 10.8614 9.42562 11.0488 9.50328C11.2361 9.58095 11.4063 9.69478 11.5496 9.83827L11.5959 9.88457C11.7778 10.0625 12.0088 10.1818 12.2591 10.2272C12.5094 10.2726 12.7676 10.2419 13.0003 10.1392H13.0621C13.2903 10.0414 13.4849 9.87898 13.622 9.67195C13.7591 9.46493 13.8327 9.22233 13.8337 8.97403V8.84285C13.8337 8.43354 13.9963 8.041 14.2857 7.75158C14.5752 7.46216 14.9677 7.29956 15.377 7.29956C15.7863 7.29956 16.1788 7.46216 16.4683 7.75158C16.7577 8.041 16.9203 8.43354 16.9203 8.84285V8.9123C16.9213 9.1606 16.9949 9.4032 17.132 9.61022C17.2691 9.81725 17.4637 9.97966 17.6919 10.0775C17.9247 10.1802 18.1828 10.2108 18.4332 10.1654C18.6835 10.1201 18.9145 10.0007 19.0963 9.82284L19.1426 9.77654C19.286 9.63305 19.4562 9.51922 19.6435 9.44155C19.8309 9.36389 20.0317 9.32391 20.2345 9.32391C20.4373 9.32391 20.6381 9.36389 20.8255 9.44155C21.0128 9.51922 21.183 9.63305 21.3264 9.77654C21.4699 9.91987 21.5837 10.0901 21.6614 10.2774C21.739 10.4648 21.779 10.6656 21.779 10.8684C21.779 11.0712 21.739 11.272 21.6614 11.4594C21.5837 11.6468 21.4699 11.817 21.3264 11.9603L21.2801 12.0066C21.1022 12.1884 20.9828 12.4194 20.9375 12.6697C20.8921 12.9201 20.9227 13.1782 21.0254 13.411V13.4727C21.1232 13.7009 21.2857 13.8956 21.4927 14.0327C21.6997 14.1698 21.9423 14.2434 22.1906 14.2444H22.3218C22.7311 14.2444 23.1236 14.407 23.4131 14.6964C23.7025 14.9858 23.8651 15.3783 23.8651 15.7876C23.8651 16.1969 23.7025 16.5895 23.4131 16.8789C23.1236 17.1683 22.7311 17.3309 22.3218 17.3309H22.2523C22.004 17.3319 21.7614 17.4055 21.5544 17.5426C21.3474 17.6797 21.185 17.8743 21.0872 18.1026V18.1026Z" stroke="#C7C7C7" stroke-width="2" stroke-linecap="round" stroke-linejoin="round"/>
</svg>
