<svg width="22" height="23" viewBox="0 0 22 23" fill="none" xmlns="http://www.w3.org/2000/svg">
<path d="M3.53572 17.7762C3.53572 16.5221 5.35403 15.3632 8.00277 14.7985C7.97748 14.531 7.96033 14.2632 7.95813 13.9946C3.91654 14.5055 0.989258 16.0053 0.989258 17.7762C0.989258 19.9682 5.47354 21.7451 11.0052 21.7451C11.0336 21.7451 13.2121 20.9739 13.2121 20.9739C8.99409 20.8651 3.53572 19.0284 3.53572 17.7762V17.7762Z" fill="#FEC108" fill-opacity="0.29"/>
<path d="M11.0052 22.5942C7.25936 22.5965 0.396381 21.6073 0.140381 17.7765C0.140466 16.9592 0.546959 15.7629 2.48359 14.7044C3.79148 13.9895 5.56849 13.4632 7.62235 13.1825C8.74401 13.0746 8.96134 14.6682 7.85221 14.8648C5.85539 15.1223 2.04705 16.0859 1.83804 17.7764C1.83808 18.4347 2.7567 19.2076 4.23549 19.7936C6.03012 20.5047 8.43432 20.8964 11.0052 20.8964C13.576 20.8964 15.9802 20.5047 17.7749 19.7936C19.2537 19.2076 20.1723 18.4347 20.1723 17.7764C20.1723 16.7983 18.1502 15.4577 14.4027 14.8997C13.9391 14.8306 13.6192 14.3987 13.6882 13.935C13.7573 13.4712 14.1893 13.1514 14.6528 13.2203C19.1045 13.8831 21.8699 15.6289 21.8699 17.7764C21.8699 19.2085 20.6377 20.4855 18.4002 21.3721C16.4113 22.1602 13.785 22.5942 11.0052 22.5942V22.5942Z" fill="#25202B"/>
<path d="M11.1 17.8826C10.6312 17.8826 10.2512 17.5025 10.2512 17.0336V4.68505C10.2512 2.57853 11.9647 0.864746 14.0708 0.864746H17.6608H17.662C18.3801 0.864746 19.0185 1.26796 19.3281 1.91732C19.6405 2.57246 19.5496 3.33067 19.0909 3.89616C19.0806 3.90885 19.07 3.92129 19.0589 3.93334L18.3269 4.7362L19.1305 5.58732C19.1462 5.604 19.1613 5.62132 19.1757 5.63924C19.6298 6.20604 19.7164 6.96582 19.4016 7.62214C19.0903 8.27126 18.4526 8.67472 17.7373 8.67515H14.283C13.8143 8.67515 13.4342 8.29507 13.4342 7.82619C13.4342 7.35731 13.8143 6.97723 14.283 6.97723H17.7368C17.759 6.97723 17.8281 6.97719 17.871 6.8878C17.8914 6.84543 17.9052 6.78312 17.8635 6.71843L16.5518 5.32911C16.2468 5.00608 16.2425 4.50248 16.5418 4.17419L17.782 2.81404C17.8187 2.76182 17.8234 2.70609 17.7958 2.64811C17.755 2.56262 17.6853 2.56355 17.6613 2.56266H14.0708C12.9007 2.56266 11.9488 3.51476 11.9488 4.68505V17.0337C11.9488 17.5025 11.5688 17.8826 11.1 17.8826V17.8826Z" fill="#FEC108"/>
</svg>
