<svg width="22" height="23" viewBox="0 0 22 23" fill="none" xmlns="http://www.w3.org/2000/svg">
<path d="M3.53572 17.7762C3.53572 16.5221 5.35403 15.3632 8.00277 14.7985C7.97748 14.531 7.96033 14.2632 7.95813 13.9946C3.91654 14.5055 0.989258 16.0053 0.989258 17.7762C0.989258 19.9682 5.47354 21.7451 11.0052 21.7451C11.0336 21.7451 13.2121 20.9739 13.2121 20.9739C8.99409 20.8651 3.53572 19.0284 3.53572 17.7762Z" fill="#FEC108" fill-opacity="0.29"/>
<path d="M11.0054 22.5942C7.2596 22.5965 0.396625 21.6073 0.140625 17.7765C0.14071 16.9592 0.547203 15.7629 2.48384 14.7044C3.79172 13.9895 5.56874 13.4632 7.62259 13.1825C8.74425 13.0746 8.96159 14.6682 7.85245 14.8648C5.85564 15.1223 2.0473 16.0859 1.83828 17.7764C1.83832 18.4347 2.75694 19.2076 4.23573 19.7936C6.03036 20.5047 8.43456 20.8964 11.0054 20.8964C13.5763 20.8964 15.9805 20.5047 17.7751 19.7936C19.2539 19.2076 20.1725 18.4347 20.1725 17.7764C20.1725 16.7983 18.1504 15.4577 14.403 14.8997C13.9393 14.8306 13.6194 14.3987 13.6884 13.935C13.7575 13.4712 14.1896 13.1514 14.653 13.2203C19.1047 13.8831 21.8702 15.6289 21.8702 17.7764C21.8702 19.2085 20.6379 20.4855 18.4004 21.3721C16.4115 22.1602 13.7853 22.5942 11.0054 22.5942Z" fill="#25202B"/>
<path d="M11.1003 17.8826C10.6315 17.8826 10.2515 17.5025 10.2515 17.0336V4.68505C10.2515 2.57853 11.9649 0.864746 14.0711 0.864746H17.6611H17.6623C18.3803 0.864746 19.0188 1.26796 19.3284 1.91732C19.6407 2.57246 19.5498 3.33067 19.0912 3.89616C19.0809 3.90885 19.0702 3.92129 19.0592 3.93334L18.3271 4.7362L19.1307 5.58732C19.1465 5.604 19.1616 5.62132 19.1759 5.63924C19.6301 6.20604 19.7167 6.96582 19.4019 7.62214C19.0906 8.27126 18.4528 8.67472 17.7376 8.67515H14.2833C13.8145 8.67515 13.4345 8.29507 13.4345 7.82619C13.4345 7.35731 13.8145 6.97723 14.2833 6.97723H17.737C17.7592 6.97723 17.8284 6.97719 17.8713 6.8878C17.8916 6.84543 17.9054 6.78312 17.8637 6.71843L16.5521 5.32911C16.2471 5.00608 16.2427 4.50248 16.542 4.17419L17.7822 2.81404C17.819 2.76182 17.8237 2.70609 17.796 2.64811C17.7553 2.56262 17.6856 2.56355 17.6616 2.56266H14.071C12.901 2.56266 11.949 3.51476 11.949 4.68505V17.0337C11.9491 17.5025 11.569 17.8826 11.1003 17.8826Z" fill="#FEC108"/>
</svg>
