<svg width="59" height="71" viewBox="0 0 59 71" fill="none" xmlns="http://www.w3.org/2000/svg">
<path d="M44.1739 14.4106L43.9545 15.4598L45.0153 15.3065C45.5366 15.2312 46.07 15.1922 46.613 15.1922C52.7274 15.1922 57.6841 20.1489 57.6841 26.2632C57.6841 32.3776 52.7274 37.3343 46.613 37.3343H12.4966C6.38222 37.3343 1.42554 32.3776 1.42554 26.2632C1.42554 23.0395 2.80241 20.1385 5.00243 18.1142C6.97475 16.2994 9.60552 15.1922 12.4966 15.1922H14.0314C16.2257 15.1922 18.1093 14.2025 19.5434 13.0289C20.9771 11.8557 22.022 10.451 22.5571 9.49088L22.6034 9.40784L22.6275 9.31588C23.8729 4.56461 28.197 1.0603 33.3376 1.0603C39.452 1.0603 44.4087 6.01698 44.4087 12.1314C44.4087 12.9134 44.3277 13.6757 44.1739 14.4106Z" stroke="#197BBD" stroke-width="1.5"/>
<path d="M38.4294 53.1391V43.6487" stroke="#197BBD" stroke-width="1.5" stroke-linecap="round" stroke-linejoin="round"/>
<path d="M33.6853 48.3939L38.4305 43.6487L43.1758 48.3939" stroke="#197BBD" stroke-width="1.5" stroke-linecap="round" stroke-linejoin="round"/>
<path d="M21.4834 35.515L26.2286 30.7698L30.9739 35.515" stroke="#197BBD" stroke-width="0.683017" stroke-linecap="round" stroke-linejoin="round"/>
<g clip-path="url(#clip0_148_4236)">
<path d="M23.3371 51.1864L14.7089 59.8145C14.1795 60.344 14.1795 61.2024 14.7089 61.7319L20.461 67.484C20.9905 68.0134 21.8489 68.0134 22.3784 67.484L31.0065 58.8558C31.536 58.3264 31.536 57.4679 31.0065 56.9385L25.2544 51.1864C24.7249 50.6569 23.8665 50.6569 23.3371 51.1864Z" stroke="#197BBD" stroke-width="1.5" stroke-linecap="round" stroke-linejoin="round"/>
<path d="M16.6265 63.6489L27.172 53.1034" stroke="#197BBD" stroke-width="1.5" stroke-linecap="round" stroke-linejoin="round"/>
</g>
<defs>
<clipPath id="clip0_148_4236">
<rect width="16.2694" height="16.2694" fill="white" transform="translate(11.3542 59.335) rotate(-45)"/>
</clipPath>
</defs>
</svg>
