<svg width="59" height="71" viewBox="0 0 59 71" fill="none" xmlns="http://www.w3.org/2000/svg">
<path d="M43.7587 14.2927L43.5392 15.3418L44.6 15.1886C45.1213 15.1133 45.6547 15.0743 46.1977 15.0743C52.3121 15.0743 57.2688 20.0309 57.2688 26.1453C57.2688 32.2597 52.3121 37.2164 46.1977 37.2164H12.0813C5.96694 37.2164 1.01025 32.2597 1.01025 26.1453C1.01025 22.9216 2.38713 20.0206 4.58715 17.9963C6.55946 16.1814 9.19024 15.0743 12.0813 15.0743H13.6161C15.8104 15.0743 17.694 14.0846 19.1281 12.911C20.5618 11.7378 21.6067 10.3331 22.1419 9.37296L22.1882 9.28992L22.2123 9.19796C23.4576 4.44669 27.7817 0.942383 32.9223 0.942383C39.0367 0.942383 43.9934 5.89906 43.9934 12.0134C43.9934 12.7955 43.9124 13.5578 43.7587 14.2927Z" stroke="#197BBD" stroke-width="1.5"/>
<path d="M38.0142 53.0212V43.5308" stroke="#197BBD" stroke-width="1.5" stroke-linecap="round" stroke-linejoin="round"/>
<path d="M33.27 48.276L38.0152 43.5308L42.7605 48.276" stroke="#197BBD" stroke-width="1.5" stroke-linecap="round" stroke-linejoin="round"/>
<path d="M21.0679 35.3971L25.8131 30.6519L30.5583 35.3971" stroke="#197BBD" stroke-width="0.683017" stroke-linecap="round" stroke-linejoin="round"/>
<g clip-path="url(#clip0_148_4533)">
<path d="M22.9218 51.0685L14.2936 59.6966C13.7642 60.2261 13.7642 61.0845 14.2936 61.614L20.0457 67.366C20.5752 67.8955 21.4336 67.8955 21.9631 67.366L30.5912 58.7379C31.1207 58.2084 31.1207 57.35 30.5912 56.8206L24.8391 51.0685C24.3097 50.539 23.4512 50.539 22.9218 51.0685Z" stroke="#197BBD" stroke-width="1.5" stroke-linecap="round" stroke-linejoin="round"/>
<path d="M16.2114 63.531L26.7569 52.9855" stroke="#197BBD" stroke-width="1.5" stroke-linecap="round" stroke-linejoin="round"/>
</g>
<defs>
<clipPath id="clip0_148_4533">
<rect width="16.2694" height="16.2694" fill="white" transform="translate(10.939 59.217) rotate(-45)"/>
</clipPath>
</defs>
</svg>
