<svg width="22" height="23" viewBox="0 0 22 23" fill="none" xmlns="http://www.w3.org/2000/svg">
<path d="M3.53573 17.225C3.53573 15.9708 5.35405 14.8119 8.00279 14.2472C7.97749 13.9797 7.96035 13.7119 7.95814 13.4434C3.91655 13.9543 0.989273 15.4541 0.989273 17.225C0.989273 19.4169 5.47356 21.1938 11.0052 21.1938C11.0336 21.1938 13.2121 20.4226 13.2121 20.4226C8.99411 20.3138 3.53573 18.4772 3.53573 17.225Z" fill="#FEC108" fill-opacity="0.29"/>
<path d="M11.0053 22.043C7.25944 22.0452 0.396457 21.056 0.140457 17.2252C0.140542 16.408 0.547035 15.2117 2.48367 14.1531C3.79155 13.4382 5.56857 12.912 7.62243 12.6312C8.74408 12.5233 8.96142 14.1169 7.85228 14.3135C5.85547 14.571 2.04713 15.5346 1.83811 17.2252C1.83815 17.8834 2.75677 18.6563 4.23556 19.2423C6.03019 19.9535 8.43439 20.3451 11.0053 20.3451C13.5761 20.3451 15.9803 19.9535 17.775 19.2423C19.2537 18.6563 20.1724 17.8834 20.1724 17.2252C20.1724 16.247 18.1503 14.9064 14.4028 14.3484C13.9392 14.2794 13.6192 13.8475 13.6882 13.3837C13.7573 12.9199 14.1894 12.6001 14.6528 12.669C19.1046 13.3319 21.87 15.0777 21.87 17.2252C21.87 18.6573 20.6378 19.9342 18.4003 20.8208C16.4113 21.6089 13.7851 22.043 11.0053 22.043Z" fill="#25202B"/>
<path d="M11.1 17.3313C10.6312 17.3313 10.2512 16.9512 10.2512 16.4824V4.13378C10.2512 2.02727 11.9647 0.313477 14.0708 0.313477H17.6608H17.662C18.3801 0.313477 19.0185 0.716688 19.3281 1.36606C19.6405 2.0212 19.5496 2.7794 19.0909 3.34489C19.0806 3.35758 19.07 3.37002 19.0589 3.38207L18.3269 4.18493L19.1305 5.03605C19.1462 5.05273 19.1613 5.07005 19.1757 5.08797C19.6298 5.65477 19.7164 6.41455 19.4016 7.07087C19.0903 7.71999 18.4526 8.12345 17.7373 8.12388H14.283C13.8143 8.12388 13.4342 7.7438 13.4342 7.27492C13.4342 6.80604 13.8143 6.42596 14.283 6.42596H17.7368C17.759 6.42596 17.8281 6.42592 17.871 6.33653C17.8914 6.29416 17.9052 6.23185 17.8635 6.16716L16.5518 4.77784C16.2468 4.45481 16.2425 3.95121 16.5418 3.62292L17.782 2.26277C17.8187 2.21056 17.8234 2.15482 17.7958 2.09684C17.755 2.01135 17.6853 2.01228 17.6613 2.01139H14.0708C12.9007 2.01139 11.9488 2.96349 11.9488 4.13378V16.4824C11.9488 16.9512 11.5688 17.3313 11.1 17.3313Z" fill="#FEC108"/>
</svg>
