<svg width="20" height="20" viewBox="0 0 20 20" fill="none" xmlns="http://www.w3.org/2000/svg">
<path d="M3.95801 6.66675H6.04134" stroke="#374151" stroke-width="1.5" stroke-linecap="round" stroke-linejoin="round"/>
<path d="M10.625 6.66675H16.0417" stroke="#374151" stroke-width="1.5" stroke-linecap="round" stroke-linejoin="round"/>
<path d="M3.95801 13.3333H10.208" stroke="#141414" stroke-width="1.5" stroke-linecap="round" stroke-linejoin="round"/>
<path d="M14.792 13.3333H16.042" stroke="#141414" stroke-width="1.5" stroke-linecap="round" stroke-linejoin="round"/>
<path d="M10.208 6.66675C10.208 7.70228 9.36854 8.54175 8.33301 8.54175C7.29747 8.54175 6.45801 7.70228 6.45801 6.66675C6.45801 5.63121 7.29747 4.79175 8.33301 4.79175C9.36854 4.79175 10.208 5.63121 10.208 6.66675Z" stroke="#141414" stroke-width="1.5" stroke-linecap="round" stroke-linejoin="round"/>
<path d="M14.375 13.3333C14.375 14.3688 13.5355 15.2083 12.5 15.2083C11.4645 15.2083 10.625 14.3688 10.625 13.3333C10.625 12.2977 11.4645 11.4583 12.5 11.4583C13.5355 11.4583 14.375 12.2977 14.375 13.3333Z" stroke="#141414" stroke-width="1.5" stroke-linecap="round" stroke-linejoin="round"/>
</svg>
