<svg width="24" height="25" viewBox="0 0 24 25" fill="none" xmlns="http://www.w3.org/2000/svg">
<path d="M20.7414 13.276C20.5903 14.9113 19.9766 16.4698 18.972 17.7691C17.9674 19.0684 16.6136 20.0547 15.069 20.6127C13.5243 21.1706 11.8527 21.2771 10.2497 20.9197C8.64674 20.5623 7.17871 19.7557 6.0174 18.5944C4.8561 17.4331 4.04954 15.9651 3.69212 14.3621C3.33469 12.7591 3.44118 11.0875 3.99912 9.54284C4.55706 7.99817 5.54338 6.64436 6.84266 5.6398C8.14195 4.63524 9.70046 4.02149 11.3358 3.87036C10.3784 5.16569 9.91763 6.76165 10.0374 8.36797C10.1572 9.97428 10.8496 11.4843 11.9886 12.6232C13.1275 13.7622 14.6375 14.4546 16.2438 14.5744C17.8501 14.6942 19.4461 14.2334 20.7414 13.276V13.276Z" stroke="#197BBD" stroke-width="1.5" stroke-linecap="round" stroke-linejoin="round"/>
</svg>
