<svg width="24" height="24" viewBox="0 0 24 24" fill="none" xmlns="http://www.w3.org/2000/svg">
<path d="M20.3264 13.1581C20.1753 14.7934 19.5615 16.3519 18.557 17.6512C17.5524 18.9505 16.1986 19.9368 14.6539 20.4948C13.1093 21.0527 11.4376 21.1592 9.83467 20.8018C8.2317 20.4443 6.76367 19.6378 5.60237 18.4765C4.44106 17.3152 3.6345 15.8471 3.27708 14.2442C2.91965 12.6412 3.02614 10.9696 3.58408 9.42492C4.14202 7.88025 5.12834 6.52644 6.42763 5.52188C7.72691 4.51732 9.28542 3.90357 10.9208 3.75244C9.96333 5.04777 9.50259 6.64373 9.62238 8.25005C9.74217 9.85636 10.4345 11.3663 11.5735 12.5053C12.7125 13.6443 14.2225 14.3367 15.8288 14.4565C17.4351 14.5762 19.0311 14.1155 20.3264 13.1581V13.1581Z" stroke="#197BBD" stroke-width="1.5" stroke-linecap="round" stroke-linejoin="round"/>
</svg>
