<svg width="21" height="21" viewBox="0 0 21 21" fill="none" xmlns="http://www.w3.org/2000/svg">
<path fill-rule="evenodd" clip-rule="evenodd" d="M3.1554 10.5333C3.1554 14.2911 5.89984 17.4155 9.48873 18.0489L9.5311 18.015C9.51696 18.0122 9.50283 18.0095 9.4887 18.0066V12.6444H7.5887V10.5333H9.4887V8.84442C9.4887 6.94442 10.7131 5.88887 12.4443 5.88887C12.9931 5.88887 13.5843 5.97331 14.1331 6.05775V7.99998H13.162C12.2331 7.99998 12.022 8.46442 12.022 9.05553V10.5333H14.0487L13.7109 12.6444H12.022V18.0066C12.0079 18.0095 11.9938 18.0122 11.9797 18.015L12.0221 18.0489C15.611 17.4155 18.3554 14.2911 18.3554 10.5333C18.3554 6.35332 14.9354 2.93332 10.7554 2.93332C6.5754 2.93332 3.1554 6.35332 3.1554 10.5333Z" fill="#4B5563"/>
</svg>
