<svg width="21" height="21" viewBox="0 0 21 21" fill="none" xmlns="http://www.w3.org/2000/svg">
<path d="M10.3112 3.1636C8.30982 3.1636 8.05865 3.17236 7.27257 3.20813C6.48803 3.24406 5.95251 3.36827 5.48394 3.55051C4.99924 3.73875 4.58809 3.99055 4.17847 4.40033C3.76854 4.80996 3.51675 5.22113 3.32791 5.70569C3.1452 6.17443 3.02084 6.71012 2.98553 7.49438C2.95037 8.28048 2.94116 8.53181 2.94116 10.5333C2.94116 12.5348 2.95007 12.7852 2.98569 13.5713C3.02177 14.3559 3.14597 14.8914 3.32806 15.36C3.51644 15.8447 3.76823 16.2559 4.17801 16.6655C4.58747 17.0754 4.99863 17.3279 5.48302 17.5161C5.9519 17.6983 6.48757 17.8225 7.27196 17.8585C8.05803 17.8942 8.30906 17.903 10.3103 17.903C12.3119 17.903 12.5623 17.8942 13.3484 17.8585C14.1329 17.8225 14.6691 17.6983 15.1379 17.5161C15.6225 17.3279 16.033 17.0754 16.4425 16.6655C16.8524 16.2559 17.1042 15.8447 17.2931 15.3601C17.4742 14.8914 17.5986 14.3557 17.6354 13.5715C17.6707 12.7854 17.68 12.5348 17.68 10.5333C17.68 8.53181 17.6707 8.28063 17.6354 7.49453C17.5986 6.70996 17.4742 6.17443 17.2931 5.70584C17.1042 5.22113 16.8524 4.80996 16.4425 4.40033C16.0326 3.99039 15.6226 3.73859 15.1375 3.55051C14.6677 3.36827 14.1319 3.24406 13.3473 3.20813C12.5612 3.17236 12.311 3.1636 10.3089 3.1636H10.3112ZM9.65015 4.49169C9.84636 4.49138 10.0653 4.49169 10.3112 4.49169C12.2789 4.49169 12.5121 4.49875 13.2891 4.53406C14.0077 4.56692 14.3976 4.68698 14.6574 4.78786C15.0013 4.92143 15.2465 5.08111 15.5043 5.33905C15.7622 5.59699 15.9219 5.84264 16.0558 6.18656C16.1566 6.44604 16.2768 6.83602 16.3095 7.55456C16.3449 8.33145 16.3525 8.56482 16.3525 10.5316C16.3525 12.4984 16.3449 12.7318 16.3095 13.5087C16.2767 14.2272 16.1566 14.6172 16.0558 14.8767C15.9222 15.2206 15.7622 15.4655 15.5043 15.7233C15.2463 15.9812 15.0015 16.1409 14.6574 16.2744C14.3979 16.3758 14.0077 16.4955 13.2891 16.5284C12.5123 16.5637 12.2789 16.5714 10.3112 16.5714C8.34345 16.5714 8.11023 16.5637 7.33337 16.5284C6.61484 16.4952 6.22488 16.3752 5.96495 16.2743C5.62104 16.1407 5.37539 15.981 5.11746 15.7231C4.85953 15.4652 4.69986 15.2201 4.56598 14.876C4.46511 14.6166 4.34489 14.2266 4.31219 13.508C4.27688 12.7312 4.26982 12.4978 4.26982 10.5298C4.26982 8.56175 4.27688 8.32961 4.31219 7.55272C4.34505 6.83417 4.46511 6.44419 4.56598 6.18441C4.69955 5.84049 4.85953 5.59484 5.11746 5.3369C5.37539 5.07896 5.62104 4.91928 5.96495 4.7854C6.22472 4.68407 6.61484 4.56431 7.33337 4.5313C8.0132 4.50059 8.27666 4.49138 9.65015 4.48984V4.49169ZM14.245 5.71536C13.7568 5.71536 13.3607 6.11102 13.3607 6.59942C13.3607 7.08766 13.7568 7.48378 14.245 7.48378C14.7332 7.48378 15.1293 7.08766 15.1293 6.59942C15.1293 6.11118 14.7332 5.71505 14.245 5.71505V5.71536ZM10.3112 6.74865C8.22124 6.74865 6.52672 8.44322 6.52672 10.5333C6.52672 12.6234 8.22124 14.3172 10.3112 14.3172C12.4013 14.3172 14.0952 12.6234 14.0952 10.5333C14.0952 8.44322 12.4011 6.74865 10.3111 6.74865H10.3112ZM10.3112 8.07674C11.6678 8.07674 12.7677 9.17651 12.7677 10.5333C12.7677 11.8899 11.6678 12.9899 10.3112 12.9899C8.9545 12.9899 7.85476 11.8899 7.85476 10.5333C7.85476 9.17651 8.9545 8.07674 10.3112 8.07674V8.07674Z" fill="#4B5563"/>
</svg>
