<svg width="21" height="21" viewBox="0 0 21 21" fill="none" xmlns="http://www.w3.org/2000/svg">
<path fill-rule="evenodd" clip-rule="evenodd" d="M16.1584 8.06423C16.1633 8.19082 16.1649 8.31735 16.1649 8.44393C16.1649 12.2817 13.4652 16.7122 8.52843 16.7122C7.01193 16.7122 5.6018 16.2289 4.4137 15.4061C4.62372 15.4291 4.83701 15.4464 5.05357 15.4464C6.31096 15.4464 7.46906 14.9802 8.38769 14.1977C7.21322 14.1805 6.2215 13.3347 5.87947 12.1839C6.04367 12.2184 6.21276 12.2357 6.38569 12.2357C6.62953 12.2357 6.86627 12.2013 7.0932 12.1322C5.86418 11.8675 4.93847 10.6938 4.93847 9.28411C4.93847 9.26684 4.93847 9.26106 4.93847 9.24955C5.30069 9.46244 5.71526 9.59471 6.15548 9.61197C5.43433 9.08837 4.96028 8.19656 4.96028 7.18964C4.96028 6.66029 5.09229 6.15969 5.32468 5.72816C6.64807 7.48882 8.62663 8.64535 10.8572 8.76618C10.8114 8.55329 10.7879 8.32895 10.7879 8.10455C10.7879 6.49924 11.9896 5.19885 13.4723 5.19885C14.2442 5.19885 14.9414 5.54988 15.4307 6.11376C16.0433 5.98717 16.6172 5.74553 17.1365 5.41181C16.9352 6.09076 16.5102 6.66027 15.9549 7.017C16.4982 6.94796 17.0165 6.79272 17.4971 6.56257C17.1365 7.1437 16.6826 7.65571 16.1584 8.06423Z" fill="#4B5563"/>
</svg>
