<svg width="3894" height="2547" viewBox="0 0 3894 2547" fill="none" xmlns="http://www.w3.org/2000/svg">
<path d="M2981.65 960.836C2992.72 907.91 2998.54 853.055 2998.54 796.84C2998.54 356.757 2641.78 0 2201.7 0C1831.63 0 1520.48 252.276 1430.85 594.234C1364.26 713.692 1164.93 952.609 900.296 952.609H796.84C588.785 952.609 399.353 1032.35 257.437 1162.93C99.1704 1308.56 0 1517.42 0 1749.45C0 2189.53 356.757 2546.29 796.84 2546.29H3096.58C3536.66 2546.29 3893.42 2189.53 3893.42 1749.45C3893.42 1309.37 3536.66 952.609 3096.58 952.609C3057.55 952.609 3019.17 955.415 2981.65 960.836Z" fill="#F0F0F0"/>
</svg>
