<svg width="3895" height="2547" viewBox="0 0 3895 2547" fill="none" xmlns="http://www.w3.org/2000/svg">
<path d="M2982.24 960.947C2993.31 908.021 2999.13 853.166 2999.13 796.951C2999.13 356.868 2642.37 0.11084 2202.29 0.11084C1832.22 0.11084 1521.07 252.387 1431.44 594.345C1364.85 713.803 1165.52 952.72 900.884 952.72H797.428C589.373 952.72 399.941 1032.46 258.026 1163.04C99.7588 1308.67 0.588379 1517.53 0.588379 1749.56C0.588379 2189.64 357.346 2546.4 797.428 2546.4H3097.16C3537.25 2546.4 3894 2189.64 3894 1749.56C3894 1309.48 3537.25 952.72 3097.16 952.72C3058.14 952.72 3019.76 955.526 2982.24 960.947Z" fill="#F0F0F0"/>
</svg>
