<svg width="59" height="38" viewBox="0 0 59 38" fill="none" xmlns="http://www.w3.org/2000/svg">
<path d="M0.260254 26.1441C0.260254 32.6727 5.55272 37.9652 12.0813 37.9652H46.1977C52.7263 37.9652 58.0188 32.6727 58.0188 26.1441C58.0188 19.6155 52.7263 14.323 46.1977 14.323C45.6187 14.323 45.0495 14.3647 44.4928 14.4451C44.657 13.6599 44.7434 12.8462 44.7434 12.0122C44.7434 5.48363 39.4509 0.191162 32.9223 0.191162C27.4323 0.191162 22.8165 3.93366 21.4868 9.00658C20.499 10.7787 17.5419 14.323 13.6161 14.323H12.0813C8.99483 14.323 6.18462 15.5059 4.07931 17.4431C1.73144 19.6035 0.260254 22.702 0.260254 26.1441Z" fill="white"/>
</svg>
