<svg width="22" height="66" viewBox="0 0 22 66" fill="none" xmlns="http://www.w3.org/2000/svg">
<path d="M17.7487 0.617923C17.0459 0.899681 17.3124 3.41248 17.2811 4.18455C17.2349 5.57163 17.3296 7.40702 17.1626 9.20468C17.1616 9.22074 17.1592 9.23189 17.1568 9.24304C17.1424 9.36796 17.1306 9.50271 17.1101 9.64501C17.0882 9.78239 17.0649 9.91486 17.048 10.0509C16.8982 10.9274 16.613 11.9653 16.0739 12.4629C15.4618 13.032 14.0903 12.9123 13.614 12.2398C12.8347 11.1452 12.8931 8.70115 12.8458 8.62908C12.8141 7.47288 12.6456 3.97583 12.393 1.6702C12.372 1.49647 12.3384 0.451406 11.3843 0.339736C10.9393 0.291403 10.4711 0.670583 10.3194 1.36313C9.87124 3.40731 9.45158 7.304 9.42515 7.91673C9.41979 7.97607 9.41715 8.04525 9.41688 8.10328C9.41688 8.10328 9.41452 8.11442 9.41589 8.11934C9.41299 8.24654 9.26145 11.2994 8.48887 12.3526C8.08511 12.9048 7.03681 13.3391 5.99506 12.7548C5.58012 12.5196 5.29577 12.0662 5.09532 11.5806C4.00591 8.18984 4.98384 4.45445 5.12302 2.67453C5.1642 2.17389 5.61755 0.502439 4.60616 0.558354C3.0833 0.641085 1.11671 7.12938 0.765086 8.61648C-0.0969932 12.3167 -0.227696 16.2704 1.27183 19.8397C2.10492 21.8161 3.73423 23.434 5.75472 24.2185C6.64765 24.562 7.64004 24.8113 8.69076 24.956C8.31273 33.3678 7.88349 42.1458 7.49258 47.0308C7.19194 50.7071 6.83697 54.4237 6.88471 58.1153C6.91294 60.3209 6.88969 62.9507 8.33746 64.8C9.85194 66.7321 13.0463 65.8432 13.9088 63.5603C14.8763 60.9867 14.5949 57.9877 14.2654 53.2625C13.9347 48.5324 13.5623 42.0796 13.3571 38.6078C13.0568 33.4957 12.952 29.0286 12.9232 24.9527C15.6131 24.5684 18.122 23.4141 19.5261 21.2915C20.1421 20.363 20.5477 19.3257 20.8247 18.2583C21.2496 16.6416 21.4567 14.8704 21.3649 13.2029C21.2716 11.6675 20.0098 -0.287847 17.7487 0.617923Z" fill="white"/>
</svg>
