<svg width="54" height="36" viewBox="0 0 54 36" fill="none" xmlns="http://www.w3.org/2000/svg">
<path d="M22.4869 24.1917C22.4869 30.2023 17.6143 35.0748 11.6038 35.0748C5.59322 35.0748 0.720703 30.2023 0.720703 24.1917C0.720703 21.0227 2.07515 18.1701 4.23673 16.1811C6.17498 14.3977 8.7622 13.3086 11.6038 13.3086C17.6143 13.3086 22.4869 18.1812 22.4869 24.1917Z" fill="#D15842"/>
<path d="M53.8962 24.1917C53.8962 30.2023 49.0237 35.0748 43.0131 35.0748C37.0025 35.0748 32.13 30.2023 32.13 24.1917C32.13 23.4239 32.2095 22.6747 32.3608 21.9519C33.3934 17.0159 37.7703 13.3086 43.0131 13.3086C49.0237 13.3086 53.8962 18.1812 53.8962 24.1917Z" fill="#D15842"/>
<path d="M41.6742 11.1812C41.6742 16.6587 37.6276 21.1911 32.3608 21.9519C31.8482 22.0259 31.3241 22.0643 30.7911 22.0643C25.5086 22.0643 21.1051 18.3007 20.1159 13.3086C19.9795 12.6206 19.908 11.9092 19.908 11.1812C19.908 10.225 20.0313 9.29758 20.2629 8.41402C21.4871 3.74363 25.7367 0.298096 30.7911 0.298096C36.8016 0.298096 41.6742 5.17062 41.6742 11.1812Z" fill="#D15842"/>
<path d="M22.4869 24.1917C22.4869 30.2023 17.6143 35.0748 11.6038 35.0748H43.0131C37.0025 35.0748 32.13 30.2023 32.13 24.1917C32.13 23.4239 32.2095 22.6747 32.3608 21.9519C31.8482 22.0259 31.3241 22.0643 30.7911 22.0643C25.5086 22.0643 21.1051 18.3007 20.1159 13.3086H13.0168H11.6038C17.6143 13.3086 22.4869 18.1812 22.4869 24.1917Z" fill="#D15842"/>
<path d="M20.1159 13.3086C19.9795 12.6206 19.908 11.9092 19.908 11.1812C19.908 10.225 20.0313 9.29758 20.2629 8.41402C19.3535 10.0456 16.6311 13.3086 13.0168 13.3086H20.1159Z" fill="#D15842"/>
</svg>
