<svg width="18" height="68" viewBox="0 0 18 68" fill="none" xmlns="http://www.w3.org/2000/svg">
<path d="M16.9989 61.6946C16.8797 59.1463 16.7218 56.6115 16.5955 54.0823C16.1868 46.1705 16.2204 38.1426 15.7928 30.1917C15.3653 22.3002 15.6188 14.4036 15.3933 6.51244C15.3478 4.87239 15.4211 1.63348 13.7241 0.698518C10.0735 -1.30993 7.90635 4.16838 6.97767 6.3987C5.30344 10.447 4.33619 14.7049 3.14034 18.899C2.12119 22.489 0.960488 26.0674 0.567108 29.7844C0.275792 32.5734 0.302527 35.6957 1.75956 38.2087C2.49123 39.4718 3.75631 40.3314 5.19682 40.6948C6.69188 41.0772 8.40128 40.5764 9.81994 41.2516C10.1856 41.4283 10.5078 41.7955 10.6546 42.1663C11.1144 43.3612 10.6794 45.1742 10.5357 46.407C10.0803 50.3784 9.59876 54.3894 9.3832 58.3797C9.25568 60.793 9.1147 63.8837 10.5746 65.9863C11.4694 67.2631 13.2829 68.4554 14.9192 67.8207C17.3648 66.8846 17.1005 63.7225 16.9989 61.6946Z" fill="white"/>
</svg>
