<svg width="59" height="39" viewBox="0 0 59 39" fill="none" xmlns="http://www.w3.org/2000/svg">
<path d="M44.1739 14.4094L43.9545 15.4585L45.0153 15.3053C45.5366 15.23 46.07 15.191 46.613 15.191C52.7274 15.191 57.6841 20.1476 57.6841 26.262C57.6841 32.3764 52.7274 37.3331 46.613 37.3331H12.4966C6.38222 37.3331 1.42554 32.3764 1.42554 26.262C1.42554 23.0383 2.80241 20.1373 5.00243 18.113C6.97475 16.2981 9.60552 15.191 12.4966 15.191H14.0314C16.2257 15.191 18.1093 14.2013 19.5434 13.0277C20.9771 11.8545 22.022 10.4498 22.5571 9.48965L22.6034 9.40662L22.6275 9.31466C23.8729 4.56339 28.197 1.05908 33.3376 1.05908C39.452 1.05908 44.4087 6.01576 44.4087 12.1301C44.4087 12.9122 44.3277 13.6745 44.1739 14.4094Z" stroke="#197BBD" stroke-width="1.5"/>
</svg>
