<svg width="54" height="36" viewBox="0 0 54 36" fill="none" xmlns="http://www.w3.org/2000/svg">
<path d="M22.462 24.8614C22.462 30.8719 17.5894 35.7445 11.5789 35.7445C5.56832 35.7445 0.695801 30.8719 0.695801 24.8614C0.695801 21.6924 2.05025 18.8398 4.21182 16.8508C6.15008 15.0674 8.7373 13.9783 11.5789 13.9783C17.5894 13.9783 22.462 18.8508 22.462 24.8614Z" fill="#D15842"/>
<path d="M53.8713 24.8614C53.8713 30.8719 48.9988 35.7445 42.9882 35.7445C36.9776 35.7445 32.1051 30.8719 32.1051 24.8614C32.1051 24.0936 32.1846 23.3444 32.3358 22.6216C33.3685 17.6855 37.7454 13.9783 42.9882 13.9783C48.9988 13.9783 53.8713 18.8508 53.8713 24.8614Z" fill="#D15842"/>
<path d="M41.6493 11.8509C41.6493 17.3284 37.6026 21.8607 32.3358 22.6216C31.8233 22.6956 31.2992 22.7339 30.7662 22.7339C25.4837 22.7339 21.0802 18.9703 20.091 13.9783C19.9546 13.2903 19.8831 12.5789 19.8831 11.8509C19.8831 10.8947 20.0064 9.96726 20.238 9.0837C21.4622 4.41331 25.7118 0.967773 30.7662 0.967773C36.7767 0.967773 41.6493 5.84029 41.6493 11.8509Z" fill="#D15842"/>
<path d="M22.462 24.8614C22.462 30.8719 17.5894 35.7445 11.5789 35.7445H42.9882C36.9776 35.7445 32.1051 30.8719 32.1051 24.8614C32.1051 24.0936 32.1846 23.3444 32.3358 22.6216C31.8233 22.6956 31.2992 22.7339 30.7662 22.7339C25.4837 22.7339 21.0802 18.9703 20.091 13.9783H12.9919H11.5789C17.5894 13.9783 22.462 18.8508 22.462 24.8614Z" fill="#D15842"/>
<path d="M20.091 13.9783C19.9546 13.2903 19.8831 12.5789 19.8831 11.8509C19.8831 10.8947 20.0064 9.96726 20.238 9.0837C19.3286 10.7152 16.6062 13.9783 12.9919 13.9783H20.091Z" fill="#D15842"/>
</svg>
