<svg width="59" height="39" viewBox="0 0 59 39" fill="none" xmlns="http://www.w3.org/2000/svg">
<path d="M0.675537 26.262C0.675537 32.7906 5.96801 38.0831 12.4966 38.0831H46.613C53.1416 38.0831 58.4341 32.7906 58.4341 26.262C58.4341 19.7334 53.1416 14.441 46.613 14.441C46.034 14.441 45.4648 14.4826 44.908 14.563C45.0723 13.7779 45.1587 12.9641 45.1587 12.1301C45.1587 5.60155 39.8662 0.309082 33.3376 0.309082C27.8476 0.309082 23.2318 4.05157 21.902 9.1245C20.9142 10.8967 17.9572 14.441 14.0314 14.441H12.4966C9.41011 14.441 6.5999 15.6239 4.4946 17.561C2.14672 19.7214 0.675537 22.8199 0.675537 26.262Z" fill="white"/>
</svg>
