<svg width="59" height="38" viewBox="0 0 59 38" fill="none" xmlns="http://www.w3.org/2000/svg">
<path d="M43.7587 14.2915L43.5392 15.3406L44.6 15.1874C45.1213 15.1121 45.6547 15.073 46.1977 15.073C52.3121 15.073 57.2688 20.0297 57.2688 26.1441C57.2688 32.2585 52.3121 37.2152 46.1977 37.2152H12.0813C5.96694 37.2152 1.01025 32.2585 1.01025 26.1441C1.01025 22.9204 2.38713 20.0194 4.58715 17.995C6.55946 16.1802 9.19024 15.073 12.0813 15.073H13.6161C15.8104 15.073 17.694 14.0834 19.1281 12.9098C20.5618 11.7366 21.6067 10.3318 22.1419 9.37173L22.1882 9.2887L22.2123 9.19674C23.4576 4.44547 27.7817 0.941162 32.9223 0.941162C39.0367 0.941162 43.9934 5.89784 43.9934 12.0122C43.9934 12.7943 43.9124 13.5566 43.7587 14.2915Z" stroke="#197BBD" stroke-width="1.5"/>
</svg>
