<svg width="81" height="54" viewBox="0 0 81 54" fill="none" xmlns="http://www.w3.org/2000/svg">
<path d="M33.2228 36.8234C33.2228 45.8985 25.8659 53.2553 16.7908 53.2553C7.71572 53.2553 0.358887 45.8985 0.358887 36.8234C0.358887 32.0387 2.40392 27.7316 5.6676 24.7285C8.59409 22.0357 12.5004 20.3914 16.7908 20.3914C25.8659 20.3914 33.2228 27.7483 33.2228 36.8234Z" fill="#D15842"/>
<path d="M80.6465 36.8234C80.6465 45.8985 73.2897 53.2553 64.2146 53.2553C55.1395 53.2553 47.7826 45.8985 47.7826 36.8234C47.7826 35.6641 47.9027 34.533 48.131 33.4416C49.6901 25.9888 56.2987 20.3914 64.2146 20.3914C73.2897 20.3914 80.6465 27.7483 80.6465 36.8234Z" fill="#D15842"/>
<path d="M62.193 17.1793C62.193 25.4496 56.0831 32.2928 48.131 33.4416C47.3571 33.5533 46.5658 33.6112 45.761 33.6112C37.7852 33.6112 31.1366 27.9287 29.6429 20.3914C29.437 19.3526 29.3291 18.2785 29.3291 17.1793C29.3291 15.7355 29.5153 14.3353 29.8649 13.0012C31.7133 5.94959 38.1296 0.747314 45.761 0.747314C54.8361 0.747314 62.193 8.10415 62.193 17.1793Z" fill="#D15842"/>
<path d="M33.2228 36.8234C33.2228 45.8985 25.8659 53.2553 16.7908 53.2553H64.2146C55.1395 53.2553 47.7826 45.8985 47.7826 36.8234C47.7826 35.6641 47.9027 34.533 48.131 33.4416C47.3571 33.5533 46.5658 33.6112 45.761 33.6112C37.7852 33.6112 31.1366 27.9287 29.6429 20.3914H18.9242H16.7908C25.8659 20.3914 33.2228 27.7483 33.2228 36.8234Z" fill="#D15842"/>
<path d="M29.6429 20.3914C29.437 19.3526 29.3291 18.2785 29.3291 17.1793C29.3291 15.7355 29.5153 14.3353 29.8649 13.0012C28.4918 15.4646 24.3813 20.3914 18.9242 20.3914H29.6429Z" fill="#D15842"/>
</svg>
