<svg width="81" height="53" viewBox="0 0 81 53" fill="none" xmlns="http://www.w3.org/2000/svg">
<path d="M33.2477 36.1537C33.2477 45.2288 25.8908 52.5856 16.8157 52.5856C7.74062 52.5856 0.383789 45.2288 0.383789 36.1537C0.383789 31.369 2.42882 27.0619 5.6925 24.0588C8.61899 21.3661 12.5253 19.7218 16.8157 19.7218C25.8908 19.7218 33.2477 27.0786 33.2477 36.1537Z" fill="#D15842"/>
<path d="M80.6714 36.1537C80.6714 45.2288 73.3146 52.5856 64.2395 52.5856C55.1644 52.5856 47.8075 45.2288 47.8075 36.1537C47.8075 34.9945 47.9276 33.8633 48.1559 32.7719C49.715 25.3191 56.3236 19.7218 64.2395 19.7218C73.3146 19.7218 80.6714 27.0786 80.6714 36.1537Z" fill="#D15842"/>
<path d="M62.2179 16.5096C62.2179 24.7799 56.108 31.6231 48.1559 32.7719C47.382 32.8837 46.5907 32.9415 45.7859 32.9415C37.8101 32.9415 31.1615 27.259 29.6678 19.7218C29.4619 18.6829 29.354 17.6089 29.354 16.5096C29.354 15.0659 29.5402 13.6656 29.8898 12.3316C31.7382 5.27992 38.1545 0.0776367 45.7859 0.0776367C54.861 0.0776367 62.2179 7.43447 62.2179 16.5096Z" fill="#D15842"/>
<path d="M33.2477 36.1537C33.2477 45.2288 25.8908 52.5856 16.8157 52.5856H64.2395C55.1644 52.5856 47.8075 45.2288 47.8075 36.1537C47.8075 34.9945 47.9276 33.8633 48.1559 32.7719C47.382 32.8837 46.5907 32.9415 45.7859 32.9415C37.8101 32.9415 31.1615 27.259 29.6678 19.7218H18.9491H16.8157C25.8908 19.7218 33.2477 27.0786 33.2477 36.1537Z" fill="#D15842"/>
<path d="M29.6678 19.7218C29.4619 18.6829 29.354 17.6089 29.354 16.5096C29.354 15.0659 29.5402 13.6656 29.8898 12.3316C28.5167 14.795 24.4062 19.7218 18.9491 19.7218H29.6678Z" fill="#D15842"/>
</svg>
